<svg width="120" height="33" viewBox="0 0 120 33" fill="none" xmlns="http://www.w3.org/2000/svg">
<g clip-path="url(#clip0_1_121)" filter="url(#filter0_d_1_121)">
<path d="M4 12.3129V24.6161H6.44H8.88V19.6161V14.5866L10.75 14.6456L12.62 14.7047L15.49 19.6456L18.34 24.5866L21.15 24.6161C22.67 24.6161 23.93 24.5767 23.93 24.5177C23.93 24.4586 22.63 22.1751 21.06 19.4488C19.47 16.7224 18.15 14.4488 18.11 14.3799C18.07 14.3011 18.55 14.0059 19.2 13.6811C20.69 12.9527 22.19 11.5846 22.83 10.3444C23.72 8.58262 23.77 5.48223 22.91 3.83853C22.02 2.13578 19.94 0.698765 17.65 0.21648C17 0.0786858 14.13 -0.0098896 10.29 -0.0098896H4V12.3129ZM16.95 4.61609C18.07 5.11806 18.64 6.01373 18.64 7.31295C18.64 8.51373 18.13 9.43892 17.18 9.95074C16.61 10.246 15.9 10.3248 12.71 10.374L8.89 10.4527V7.32279V4.19286H12.5C15.61 4.21255 16.22 4.27161 16.95 4.61609Z" fill="black"/>
<path d="M81.65 12.5197V24.626H83.99H86.33V12.5197V0.413372H83.99H81.65V12.5197Z" fill="black"/>
<path d="M107.5 11.7517C107.56 21.0824 107.56 21.1217 108.03 22.0568C108.56 23.1198 109.82 24.3205 110.84 24.7339C111.28 24.9111 112.3 25.0095 113.76 25.0095H116V23.0115V21.0135H114.7C113.71 21.0135 113.3 20.915 112.87 20.5902L112.34 20.1867V15.482V10.8068H114.17H116V8.90716V7.00755H114.17H112.34V4.70441V2.40126H109.88H107.44L107.5 11.7517Z" fill="black"/>
<path d="M30.18 6.98819C28.53 7.52953 27.41 8.21851 26.22 9.44882C25 10.748 24.43 11.752 24.02 13.4547C22.93 18.0217 24.93 22.3917 29 24.2913C30.26 24.8917 30.42 24.9213 32.96 24.9213C35.23 24.9213 35.77 24.8622 36.78 24.4488C38.2 23.8878 40.1 22.2441 40.85 20.8858L41.38 19.9114L39.75 18.9764C38.86 18.4547 38.05 18.0413 37.96 18.0413C37.88 18.0413 37.53 18.4449 37.17 18.9173C36.36 20.0787 35.26 20.7776 33.92 21.0433C32.73 21.2697 31.86 21.1417 30.83 20.6201C29.61 20.0197 28.39 18.4449 28.39 17.4409C28.39 17.0374 28.47 17.0374 35.1 17.0374H41.81V15.3642C41.81 11.5256 40.01 8.69095 36.63 7.22442C35.18 6.55512 31.82 6.4567 30.18 6.98819ZM35.67 10.8957C36.2 11.2598 36.71 11.8307 37.03 12.5L37.56 13.5236L33.05 13.5827C30.57 13.6122 28.5 13.5827 28.44 13.5236C28.16 13.248 29.62 11.4567 30.64 10.8563C31.68 10.2264 31.86 10.1968 33.31 10.2559C34.59 10.315 34.96 10.3937 35.67 10.8957Z" fill="black"/>
<path d="M67.04 6.91931C64.42 7.64766 62 9.54725 61.01 11.6831C60.3 13.248 59.99 15.6496 60.3 17.4606C61.09 22.1949 64.64 25.0295 69.85 25.0295C72.9 25.0295 74.93 24.3012 76.9 22.5689C78.04 21.5453 78.81 20.2658 79.31 18.5433C79.74 17.0768 79.64 13.8091 79.13 12.4114C78.29 10.1477 76.08 8.0512 73.58 7.17521C72.03 6.61419 68.61 6.48624 67.04 6.91931ZM71.99 11.3878C74.84 12.628 75.78 16.3681 73.86 18.8484C72.5 20.6103 69.63 21.2697 67.7 20.2756C66.65 19.7146 65.5 18.4744 65.18 17.5099C64.77 16.3091 65.01 14.1732 65.65 13.2382C67.09 11.0925 69.59 10.374 71.99 11.3878Z" fill="black"/>
<path d="M41.67 7.29334C41.73 7.43114 43.36 11.3977 45.29 16.0926L48.81 24.6359L51.02 24.5768L53.23 24.5178L56.66 16.2107C58.55 11.6437 60.15 7.70673 60.22 7.44098L60.35 6.97839L57.87 7.03744L55.37 7.09649L53.21 12.7363C52.03 15.8367 51 18.317 50.94 18.2382C50.86 18.1595 49.86 15.6004 48.7 12.5394L46.59 6.99807H44.07C42.04 7.01775 41.58 7.07681 41.67 7.29334Z" fill="black"/>
<path d="M88.76 12.4804C88.76 15.5611 88.86 18.4548 88.99 19.1241C89.43 21.565 90.76 23.2481 93.02 24.3012C94.32 24.9016 94.47 24.9312 97.11 24.9312C99.69 24.9312 99.93 24.8918 101.07 24.3701C103.33 23.3367 104.77 21.506 105.21 19.1339C105.34 18.4745 105.44 15.5709 105.44 12.4902V7.02761H103.13H100.79L100.73 12.4705C100.67 17.6969 100.65 17.9725 100.2 18.7697C99.55 19.9705 98.45 20.4922 96.81 20.3937C95.35 20.315 94.51 19.8229 93.94 18.691C93.6 18.0119 93.56 17.3327 93.5 12.4607L93.44 7.01777H91.1H88.79V12.4804H88.76Z" fill="black"/>
</g>
<defs>
<filter id="filter0_d_1_121" x="0" y="0" width="120" height="33" filterUnits="userSpaceOnUse" color-interpolation-filters="sRGB">
<feFlood flood-opacity="0" result="BackgroundImageFix"/>
<feColorMatrix in="SourceAlpha" type="matrix" values="0 0 0 0 0 0 0 0 0 0 0 0 0 0 0 0 0 0 127 0" result="hardAlpha"/>
<feOffset dy="4"/>
<feGaussianBlur stdDeviation="2"/>
<feComposite in2="hardAlpha" operator="out"/>
<feColorMatrix type="matrix" values="0 0 0 0 0 0 0 0 0 0 0 0 0 0 0 0 0 0 0.25 0"/>
<feBlend mode="normal" in2="BackgroundImageFix" result="effect1_dropShadow_1_121"/>
<feBlend mode="normal" in="SourceGraphic" in2="effect1_dropShadow_1_121" result="shape"/>
</filter>
<clipPath id="clip0_1_121">
<rect width="112" height="25" fill="white" transform="translate(4)"/>
</clipPath>
</defs>
</svg>
